<svg width="283" height="18" viewBox="0 0 283 18" fill="none" xmlns="http://www.w3.org/2000/svg">
<path d="M1.216 14.0031V2.80305H2.496L7.152 10.4671H6.32L10.976 2.80305H12.256V14.0031H10.416V6.03505L10.832 6.14705L7.376 11.8271H6.096L2.64 6.14705L3.056 6.03505V14.0031H1.216ZM17.6608 14.1631C16.9674 14.1631 16.3381 13.9871 15.7728 13.6351C15.2181 13.2831 14.7754 12.8084 14.4448 12.2111C14.1248 11.6031 13.9648 10.9257 13.9648 10.1791C13.9648 9.42172 14.1248 8.74438 14.4448 8.14705C14.7754 7.53905 15.2181 7.05905 15.7728 6.70705C16.3381 6.34438 16.9674 6.16305 17.6608 6.16305C18.2474 6.16305 18.7648 6.29105 19.2128 6.54705C19.6714 6.79238 20.0341 7.13372 20.3008 7.57105C20.5674 8.00838 20.7008 8.50438 20.7008 9.05905V11.2671C20.7008 11.8217 20.5674 12.3177 20.3008 12.7551C20.0448 13.1924 19.6874 13.5391 19.2288 13.7951C18.7701 14.0404 18.2474 14.1631 17.6608 14.1631ZM17.9488 12.4991C18.5994 12.4991 19.1221 12.2804 19.5168 11.8431C19.9221 11.4057 20.1248 10.8457 20.1248 10.1631C20.1248 9.70438 20.0341 9.29905 19.8528 8.94705C19.6714 8.59505 19.4154 8.32305 19.0848 8.13105C18.7648 7.92838 18.3861 7.82705 17.9488 7.82705C17.5221 7.82705 17.1434 7.92838 16.8128 8.13105C16.4928 8.32305 16.2368 8.59505 16.0448 8.94705C15.8634 9.29905 15.7728 9.70438 15.7728 10.1631C15.7728 10.6217 15.8634 11.0271 16.0448 11.3791C16.2368 11.7311 16.4928 12.0084 16.8128 12.2111C17.1434 12.4031 17.5221 12.4991 17.9488 12.4991ZM20.0128 14.0031V11.9391L20.3168 10.0671L20.0128 8.21105V6.32305H21.7728V14.0031H20.0128ZM23.726 14.0031V6.32305H25.486V14.0031H23.726ZM25.486 9.73105L24.878 9.42705C24.878 8.45638 25.0913 7.67238 25.518 7.07505C25.9553 6.46705 26.6113 6.16305 27.486 6.16305C27.87 6.16305 28.2167 6.23238 28.526 6.37105C28.8353 6.50972 29.1233 6.73372 29.39 7.04305L28.238 8.22705C28.0993 8.07772 27.9447 7.97105 27.774 7.90705C27.6033 7.84305 27.406 7.81105 27.182 7.81105C26.6913 7.81105 26.286 7.96572 25.966 8.27505C25.646 8.58438 25.486 9.06972 25.486 9.73105ZM33.2233 14.1631C32.5299 14.1631 31.9006 13.9871 31.3353 13.6351C30.7806 13.2831 30.3379 12.8084 30.0073 12.2111C29.6873 11.6031 29.5273 10.9257 29.5273 10.1791C29.5273 9.42172 29.6873 8.74438 30.0073 8.14705C30.3379 7.53905 30.7806 7.05905 31.3353 6.70705C31.9006 6.34438 32.5299 6.16305 33.2233 6.16305C33.8099 6.16305 34.3273 6.29105 34.7753 6.54705C35.2339 6.79238 35.5966 7.13372 35.8633 7.57105C36.1299 8.00838 36.2633 8.50438 36.2633 9.05905V11.2671C36.2633 11.8217 36.1299 12.3177 35.8633 12.7551C35.6073 13.1924 35.2499 13.5391 34.7913 13.7951C34.3326 14.0404 33.8099 14.1631 33.2233 14.1631ZM33.5113 12.4991C34.1619 12.4991 34.6846 12.2804 35.0793 11.8431C35.4846 11.4057 35.6873 10.8457 35.6873 10.1631C35.6873 9.70438 35.5966 9.29905 35.4153 8.94705C35.2339 8.59505 34.9779 8.32305 34.6473 8.13105C34.3273 7.92838 33.9486 7.82705 33.5113 7.82705C33.0846 7.82705 32.7059 7.92838 32.3753 8.13105C32.0553 8.32305 31.7993 8.59505 31.6073 8.94705C31.4259 9.29905 31.3353 9.70438 31.3353 10.1631C31.3353 10.6217 31.4259 11.0271 31.6073 11.3791C31.7993 11.7311 32.0553 12.0084 32.3753 12.2111C32.7059 12.4031 33.0846 12.4991 33.5113 12.4991ZM35.5753 17.2031V12.1151L35.8793 10.2591L35.5753 8.38705V6.32305H37.3353V17.2031H35.5753ZM42.4405 14.1631C41.7898 14.1631 41.2085 14.0191 40.6965 13.7311C40.1952 13.4431 39.8005 13.0484 39.5125 12.5471C39.2352 12.0351 39.0965 11.4484 39.0965 10.7871V6.32305H40.8565V10.7071C40.8565 11.0804 40.9152 11.4004 41.0325 11.6671C41.1605 11.9231 41.3418 12.1204 41.5765 12.2591C41.8218 12.3977 42.1098 12.4671 42.4405 12.4671C42.9525 12.4671 43.3418 12.3177 43.6085 12.0191C43.8858 11.7097 44.0245 11.2724 44.0245 10.7071V6.32305H45.7845V10.7871C45.7845 11.4591 45.6405 12.0511 45.3525 12.5631C45.0752 13.0644 44.6858 13.4591 44.1845 13.7471C43.6832 14.0244 43.1018 14.1631 42.4405 14.1631ZM51.1221 14.1631C50.3541 14.1631 49.6608 13.9924 49.0421 13.6511C48.4341 13.2991 47.9488 12.8191 47.5861 12.2111C47.2341 11.6031 47.0581 10.9204 47.0581 10.1631C47.0581 9.40572 47.2341 8.72838 47.5861 8.13105C47.9381 7.52305 48.4128 7.04305 49.0101 6.69105C49.6181 6.33905 50.2901 6.16305 51.0261 6.16305C51.7408 6.16305 52.3701 6.32838 52.9141 6.65905C53.4688 6.98972 53.9008 7.44305 54.2101 8.01905C54.5301 8.59505 54.6901 9.25105 54.6901 9.98705C54.6901 10.1151 54.6795 10.2484 54.6581 10.3871C54.6475 10.5151 54.6261 10.6591 54.5941 10.8191H48.2901V9.37905H53.6821L53.0261 9.95505C53.0048 9.48572 52.9141 9.09105 52.7541 8.77105C52.5941 8.45105 52.3648 8.20572 52.0661 8.03505C51.7781 7.86438 51.4208 7.77905 50.9941 7.77905C50.5461 7.77905 50.1568 7.87505 49.8261 8.06705C49.4955 8.25905 49.2395 8.53105 49.0581 8.88305C48.8768 9.22438 48.7861 9.63505 48.7861 10.1151C48.7861 10.5951 48.8821 11.0164 49.0741 11.3791C49.2661 11.7417 49.5381 12.0244 49.8901 12.2271C50.2421 12.4191 50.6475 12.5151 51.1061 12.5151C51.5008 12.5151 51.8635 12.4457 52.1941 12.3071C52.5355 12.1684 52.8235 11.9657 53.0581 11.6991L54.1781 12.8351C53.8048 13.2724 53.3515 13.6031 52.8181 13.8271C52.2848 14.0511 51.7195 14.1631 51.1221 14.1631ZM58.613 14.1631C58.1863 14.1631 57.7757 14.1097 57.381 14.0031C56.9863 13.8857 56.6237 13.7257 56.293 13.5231C55.9623 13.3097 55.6743 13.0537 55.429 12.7551L56.549 11.6351C56.8157 11.9444 57.1197 12.1791 57.461 12.3391C57.813 12.4884 58.2077 12.5631 58.645 12.5631C59.0397 12.5631 59.3383 12.5044 59.541 12.3871C59.7437 12.2697 59.845 12.0991 59.845 11.8751C59.845 11.6404 59.749 11.4591 59.557 11.3311C59.365 11.2031 59.1143 11.0964 58.805 11.0111C58.5063 10.9151 58.1863 10.8191 57.845 10.7231C57.5143 10.6271 57.1943 10.4991 56.885 10.3391C56.5863 10.1684 56.341 9.93905 56.149 9.65105C55.957 9.36305 55.861 8.98972 55.861 8.53105C55.861 8.04038 55.973 7.61905 56.197 7.26705C56.4317 6.91505 56.757 6.64305 57.173 6.45105C57.5997 6.25905 58.1063 6.16305 58.693 6.16305C59.3117 6.16305 59.8557 6.27505 60.325 6.49905C60.805 6.71238 61.205 7.03772 61.525 7.47505L60.405 8.59505C60.181 8.31772 59.925 8.10972 59.637 7.97105C59.349 7.83238 59.0183 7.76305 58.645 7.76305C58.293 7.76305 58.021 7.81638 57.829 7.92305C57.637 8.02972 57.541 8.18438 57.541 8.38705C57.541 8.60038 57.637 8.76572 57.829 8.88305C58.021 9.00038 58.2663 9.10172 58.565 9.18705C58.8743 9.27238 59.1943 9.36838 59.525 9.47505C59.8663 9.57105 60.1863 9.70972 60.485 9.89105C60.7943 10.0617 61.045 10.2964 61.237 10.5951C61.429 10.8831 61.525 11.2617 61.525 11.7311C61.525 12.4777 61.2637 13.0697 60.741 13.5071C60.2183 13.9444 59.509 14.1631 58.613 14.1631ZM70.2911 14.1631C69.7045 14.1631 69.1818 14.0404 68.7231 13.7951C68.2645 13.5391 67.9018 13.1924 67.6351 12.7551C67.3791 12.3177 67.2511 11.8217 67.2511 11.2671V9.05905C67.2511 8.50438 67.3845 8.00838 67.6511 7.57105C67.9178 7.13372 68.2805 6.79238 68.7391 6.54705C69.1978 6.29105 69.7151 6.16305 70.2911 6.16305C70.9845 6.16305 71.6085 6.34438 72.1631 6.70705C72.7285 7.05905 73.1711 7.53905 73.4911 8.14705C73.8218 8.74438 73.9871 9.42172 73.9871 10.1791C73.9871 10.9257 73.8218 11.6031 73.4911 12.2111C73.1711 12.8084 72.7285 13.2831 72.1631 13.6351C71.6085 13.9871 70.9845 14.1631 70.2911 14.1631ZM66.1791 17.2031V6.32305H67.9391V8.38705L67.6351 10.2591L67.9391 12.1151V17.2031H66.1791ZM70.0031 12.4991C70.4298 12.4991 70.8031 12.4031 71.1231 12.2111C71.4538 12.0084 71.7098 11.7311 71.8911 11.3791C72.0831 11.0271 72.1791 10.6217 72.1791 10.1631C72.1791 9.70438 72.0831 9.29905 71.8911 8.94705C71.7098 8.59505 71.4538 8.32305 71.1231 8.13105C70.8031 7.92838 70.4298 7.82705 70.0031 7.82705C69.5765 7.82705 69.1978 7.92838 68.8671 8.13105C68.5365 8.32305 68.2805 8.59505 68.0991 8.94705C67.9178 9.29905 67.8271 9.70438 67.8271 10.1631C67.8271 10.6217 67.9178 11.0271 68.0991 11.3791C68.2805 11.7311 68.5365 12.0084 68.8671 12.2111C69.1978 12.4031 69.5765 12.4991 70.0031 12.4991ZM78.6764 14.1631C77.983 14.1631 77.3537 13.9871 76.7884 13.6351C76.2337 13.2831 75.791 12.8084 75.4604 12.2111C75.1404 11.6031 74.9804 10.9257 74.9804 10.1791C74.9804 9.42172 75.1404 8.74438 75.4604 8.14705C75.791 7.53905 76.2337 7.05905 76.7884 6.70705C77.3537 6.34438 77.983 6.16305 78.6764 6.16305C79.263 6.16305 79.7804 6.29105 80.2284 6.54705C80.687 6.79238 81.0497 7.13372 81.3164 7.57105C81.583 8.00838 81.7164 8.50438 81.7164 9.05905V11.2671C81.7164 11.8217 81.583 12.3177 81.3164 12.7551C81.0604 13.1924 80.703 13.5391 80.2444 13.7951C79.7857 14.0404 79.263 14.1631 78.6764 14.1631ZM78.9644 12.4991C79.615 12.4991 80.1377 12.2804 80.5324 11.8431C80.9377 11.4057 81.1404 10.8457 81.1404 10.1631C81.1404 9.70438 81.0497 9.29905 80.8684 8.94705C80.687 8.59505 80.431 8.32305 80.1004 8.13105C79.7804 7.92838 79.4017 7.82705 78.9644 7.82705C78.5377 7.82705 78.159 7.92838 77.8284 8.13105C77.5084 8.32305 77.2524 8.59505 77.0604 8.94705C76.879 9.29905 76.7884 9.70438 76.7884 10.1631C76.7884 10.6217 76.879 11.0271 77.0604 11.3791C77.2524 11.7311 77.5084 12.0084 77.8284 12.2111C78.159 12.4031 78.5377 12.4991 78.9644 12.4991ZM81.0284 14.0031V11.9391L81.3324 10.0671L81.0284 8.21105V6.32305H82.7884V14.0031H81.0284ZM84.7416 14.0031V6.32305H86.5016V14.0031H84.7416ZM86.5016 9.73105L85.8936 9.42705C85.8936 8.45638 86.107 7.67238 86.5336 7.07505C86.971 6.46705 87.627 6.16305 88.5016 6.16305C88.8856 6.16305 89.2323 6.23238 89.5416 6.37105C89.851 6.50972 90.139 6.73372 90.4056 7.04305L89.2536 8.22705C89.115 8.07772 88.9603 7.97105 88.7896 7.90705C88.619 7.84305 88.4216 7.81105 88.1976 7.81105C87.707 7.81105 87.3016 7.96572 86.9816 8.27505C86.6616 8.58438 86.5016 9.06972 86.5016 9.73105ZM92.4409 14.0031V3.12305H94.2009V14.0031H92.4409ZM90.6009 7.92305V6.32305H96.0409V7.92305H90.6009ZM100.669 14.1631C99.901 14.1631 99.2077 13.9924 98.589 13.6511C97.981 13.2991 97.4957 12.8191 97.133 12.2111C96.781 11.6031 96.605 10.9204 96.605 10.1631C96.605 9.40572 96.781 8.72838 97.133 8.13105C97.485 7.52305 97.9597 7.04305 98.557 6.69105C99.165 6.33905 99.837 6.16305 100.573 6.16305C101.288 6.16305 101.917 6.32838 102.461 6.65905C103.016 6.98972 103.448 7.44305 103.757 8.01905C104.077 8.59505 104.237 9.25105 104.237 9.98705C104.237 10.1151 104.226 10.2484 104.205 10.3871C104.194 10.5151 104.173 10.6591 104.141 10.8191H97.837V9.37905H103.229L102.573 9.95505C102.552 9.48572 102.461 9.09105 102.301 8.77105C102.141 8.45105 101.912 8.20572 101.613 8.03505C101.325 7.86438 100.968 7.77905 100.541 7.77905C100.093 7.77905 99.7037 7.87505 99.373 8.06705C99.0423 8.25905 98.7863 8.53105 98.605 8.88305C98.4237 9.22438 98.333 9.63505 98.333 10.1151C98.333 10.5951 98.429 11.0164 98.621 11.3791C98.813 11.7417 99.085 12.0244 99.437 12.2271C99.789 12.4191 100.194 12.5151 100.653 12.5151C101.048 12.5151 101.41 12.4457 101.741 12.3071C102.082 12.1684 102.37 11.9657 102.605 11.6991L103.725 12.8351C103.352 13.2724 102.898 13.6031 102.365 13.8271C101.832 14.0511 101.266 14.1631 100.669 14.1631ZM110.912 14.0031V9.57105C110.912 9.05905 110.747 8.63772 110.416 8.30705C110.096 7.97638 109.68 7.81105 109.168 7.81105C108.827 7.81105 108.523 7.88572 108.256 8.03505C107.989 8.18438 107.781 8.39238 107.632 8.65905C107.483 8.92572 107.408 9.22972 107.408 9.57105L106.72 9.18705C106.72 8.60038 106.848 8.08305 107.104 7.63505C107.36 7.17638 107.712 6.81905 108.16 6.56305C108.619 6.29638 109.131 6.16305 109.696 6.16305C110.272 6.16305 110.784 6.31238 111.232 6.61105C111.68 6.89905 112.032 7.27772 112.288 7.74705C112.544 8.20572 112.672 8.68572 112.672 9.18705V14.0031H110.912ZM105.648 14.0031V6.32305H107.408V14.0031H105.648ZM117.676 14.1631C116.983 14.1631 116.354 13.9871 115.788 13.6351C115.234 13.2831 114.791 12.8084 114.46 12.2111C114.14 11.6031 113.98 10.9257 113.98 10.1791C113.98 9.42172 114.14 8.74438 114.46 8.14705C114.791 7.53905 115.234 7.05905 115.788 6.70705C116.354 6.34438 116.983 6.16305 117.676 6.16305C118.263 6.16305 118.78 6.29105 119.228 6.54705C119.687 6.79238 120.05 7.13372 120.316 7.57105C120.583 8.00838 120.716 8.50438 120.716 9.05905V11.2671C120.716 11.8217 120.583 12.3177 120.316 12.7551C120.06 13.1924 119.703 13.5391 119.244 13.7951C118.786 14.0404 118.263 14.1631 117.676 14.1631ZM117.964 12.4991C118.615 12.4991 119.138 12.2804 119.532 11.8431C119.938 11.4057 120.14 10.8457 120.14 10.1631C120.14 9.70438 120.05 9.29905 119.868 8.94705C119.687 8.59505 119.431 8.32305 119.1 8.13105C118.78 7.92838 118.402 7.82705 117.964 7.82705C117.538 7.82705 117.159 7.92838 116.828 8.13105C116.508 8.32305 116.252 8.59505 116.06 8.94705C115.879 9.29905 115.788 9.70438 115.788 10.1631C115.788 10.6217 115.879 11.0271 116.06 11.3791C116.252 11.7311 116.508 12.0084 116.828 12.2111C117.159 12.4031 117.538 12.4991 117.964 12.4991ZM120.028 14.0031V11.9391L120.332 10.0671L120.028 8.21105V6.32305H121.788V14.0031H120.028ZM123.758 14.0031V6.32305H125.518V14.0031H123.758ZM124.638 4.91505C124.339 4.91505 124.088 4.81372 123.886 4.61105C123.694 4.40838 123.598 4.15772 123.598 3.85905C123.598 3.56038 123.694 3.30972 123.886 3.10705C124.088 2.90438 124.339 2.80305 124.638 2.80305C124.947 2.80305 125.198 2.90438 125.39 3.10705C125.582 3.30972 125.678 3.56038 125.678 3.85905C125.678 4.15772 125.582 4.40838 125.39 4.61105C125.198 4.81372 124.947 4.91505 124.638 4.91505ZM127.492 14.0031V6.32305H129.252V14.0031H127.492ZM129.252 9.73105L128.644 9.42705C128.644 8.45638 128.857 7.67238 129.284 7.07505C129.721 6.46705 130.377 6.16305 131.252 6.16305C131.636 6.16305 131.982 6.23238 132.292 6.37105C132.601 6.50972 132.889 6.73372 133.156 7.04305L132.004 8.22705C131.865 8.07772 131.71 7.97105 131.54 7.90705C131.369 7.84305 131.172 7.81105 130.948 7.81105C130.457 7.81105 130.052 7.96572 129.732 8.27505C129.412 8.58438 129.252 9.06972 129.252 9.73105ZM137.341 14.1631C136.573 14.1631 135.88 13.9924 135.261 13.6511C134.653 13.2991 134.168 12.8191 133.805 12.2111C133.453 11.6031 133.277 10.9204 133.277 10.1631C133.277 9.40572 133.453 8.72838 133.805 8.13105C134.157 7.52305 134.632 7.04305 135.229 6.69105C135.837 6.33905 136.509 6.16305 137.245 6.16305C137.96 6.16305 138.589 6.32838 139.133 6.65905C139.688 6.98972 140.12 7.44305 140.429 8.01905C140.749 8.59505 140.909 9.25105 140.909 9.98705C140.909 10.1151 140.898 10.2484 140.877 10.3871C140.866 10.5151 140.845 10.6591 140.813 10.8191H134.509V9.37905H139.901L139.245 9.95505C139.224 9.48572 139.133 9.09105 138.973 8.77105C138.813 8.45105 138.584 8.20572 138.285 8.03505C137.997 7.86438 137.64 7.77905 137.213 7.77905C136.765 7.77905 136.376 7.87505 136.045 8.06705C135.714 8.25905 135.458 8.53105 135.277 8.88305C135.096 9.22438 135.005 9.63505 135.005 10.1151C135.005 10.5951 135.101 11.0164 135.293 11.3791C135.485 11.7417 135.757 12.0244 136.109 12.2271C136.461 12.4191 136.866 12.5151 137.325 12.5151C137.72 12.5151 138.082 12.4457 138.413 12.3071C138.754 12.1684 139.042 11.9657 139.277 11.6991L140.397 12.8351C140.024 13.2724 139.57 13.6031 139.037 13.8271C138.504 14.0511 137.938 14.1631 137.341 14.1631ZM144.832 14.1631C144.405 14.1631 143.994 14.1097 143.6 14.0031C143.205 13.8857 142.842 13.7257 142.512 13.5231C142.181 13.3097 141.893 13.0537 141.648 12.7551L142.768 11.6351C143.034 11.9444 143.338 12.1791 143.68 12.3391C144.032 12.4884 144.426 12.5631 144.864 12.5631C145.258 12.5631 145.557 12.5044 145.76 12.3871C145.962 12.2697 146.064 12.0991 146.064 11.8751C146.064 11.6404 145.968 11.4591 145.776 11.3311C145.584 11.2031 145.333 11.0964 145.024 11.0111C144.725 10.9151 144.405 10.8191 144.064 10.7231C143.733 10.6271 143.413 10.4991 143.104 10.3391C142.805 10.1684 142.56 9.93905 142.368 9.65105C142.176 9.36305 142.08 8.98972 142.08 8.53105C142.08 8.04038 142.192 7.61905 142.416 7.26705C142.65 6.91505 142.976 6.64305 143.392 6.45105C143.818 6.25905 144.325 6.16305 144.912 6.16305C145.53 6.16305 146.074 6.27505 146.544 6.49905C147.024 6.71238 147.424 7.03772 147.744 7.47505L146.624 8.59505C146.4 8.31772 146.144 8.10972 145.856 7.97105C145.568 7.83238 145.237 7.76305 144.864 7.76305C144.512 7.76305 144.24 7.81638 144.048 7.92305C143.856 8.02972 143.76 8.18438 143.76 8.38705C143.76 8.60038 143.856 8.76572 144.048 8.88305C144.24 9.00038 144.485 9.10172 144.784 9.18705C145.093 9.27238 145.413 9.36838 145.744 9.47505C146.085 9.57105 146.405 9.70972 146.704 9.89105C147.013 10.0617 147.264 10.2964 147.456 10.5951C147.648 10.8831 147.744 11.2617 147.744 11.7311C147.744 12.4777 147.482 13.0697 146.96 13.5071C146.437 13.9444 145.728 14.1631 144.832 14.1631Z" fill="white"/>
<path d="M277.103 3.45761L281.865 8.00308M281.865 8.00308L277.103 12.5485M281.865 8.00308H272.5" stroke="white" stroke-width="2" stroke-linejoin="round"/>
</svg>
